<?xml version="1.0" encoding="utf-8"?>
<svg width="160" height="36" fill="none" xmlns="http://www.w3.org/2000/svg">
  <rect width="160" height="36" rx="8" fill="#25D366"/>
  <path fill-rule="evenodd" clip-rule="evenodd" d="M 18.973 7.893 C 21.391 7.905 23.725 8.855 25.471 10.529 C 27.259 12.243 28.29 14.541 28.38 17.017 C 28.468 19.434 27.624 21.808 26.023 23.622 C 24.268 25.611 21.826 26.753 19.188 26.829 C 19.098 26.831 19.008 26.833 18.917 26.833 C 17.496 26.833 16.088 26.512 14.813 25.898 L 9.856 27.001 C 9.807 27.01 9.764 26.969 9.77 26.92 L 10.608 21.908 C 9.893 20.602 9.494 19.131 9.451 17.635 C 9.379 15.106 10.295 12.701 12.032 10.862 C 13.832 8.955 16.291 7.893 18.926 7.893 L 18.973 7.893 L 18.973 7.893 Z M 18.92 9.537 C 18.844 9.537 18.769 9.538 18.692 9.54 C 14.379 9.664 10.97 13.274 11.094 17.587 C 11.131 18.905 11.502 20.198 12.167 21.327 L 12.311 21.571 L 11.691 24.972 L 15.056 24.178 L 15.31 24.31 C 16.419 24.887 17.662 25.189 18.917 25.189 C 18.992 25.189 19.067 25.188 19.141 25.186 C 23.455 25.063 26.864 21.452 26.74 17.139 C 26.618 12.901 23.132 9.537 18.92 9.537 L 18.92 9.537 Z M 15.646 12.789 C 15.804 12.793 15.963 12.798 16.101 12.808 C 16.27 12.82 16.457 12.834 16.623 13.235 C 16.82 13.712 17.246 14.903 17.302 15.023 C 17.357 15.144 17.393 15.284 17.309 15.44 C 17.224 15.597 17.182 15.695 17.059 15.83 C 16.936 15.965 16.8 16.132 16.69 16.235 C 16.567 16.35 16.439 16.475 16.571 16.717 C 16.702 16.96 17.155 17.753 17.842 18.405 C 18.725 19.243 19.433 19.519 19.714 19.65 C 19.816 19.698 19.9 19.72 19.974 19.72 C 20.075 19.72 20.156 19.678 20.233 19.6 C 20.381 19.45 20.826 18.93 21.014 18.691 C 21.112 18.566 21.201 18.522 21.297 18.522 C 21.374 18.522 21.456 18.55 21.552 18.588 C 21.768 18.674 22.918 19.285 23.152 19.412 C 23.386 19.538 23.543 19.602 23.599 19.703 C 23.655 19.804 23.641 20.28 23.426 20.829 C 23.21 21.379 22.224 21.884 21.787 21.911 C 21.659 21.918 21.533 21.936 21.369 21.936 C 20.974 21.936 20.356 21.832 18.954 21.228 C 16.568 20.201 15.119 17.676 15.005 17.514 C 14.892 17.351 14.075 16.195 14.111 15.024 C 14.147 13.854 14.778 13.298 15.003 13.067 C 15.219 12.845 15.466 12.788 15.626 12.788 L 15.646 12.789 L 15.646 12.789 Z" fill="#fff"/>
  <text style="fill: rgb(255, 255, 255); font-family: Arial, sans-serif; font-size: 3.6px; font-weight: 700; white-space: pre;" transform="matrix(3.36084, 0.013725, 0, 3.494035, -99.038353, -9.58567)" x="39.0227" y="6.23852">Chame no Whatsapp</text>
  <text style="fill: rgb(255, 255, 255); font-family: Arial, sans-serif; font-size: 3.6px; font-weight: 700; white-space: pre;" transform="matrix(4.535201, 0, 0, 4.042683, -156.979874, -67.762192)" lang="pt" x="41.472" y="24.32">(48) 99654-3410</text>
  <text style="white-space: pre; fill: rgb(51, 51, 51); font-family: Arial, sans-serif; font-size: 3.6px;" x="71.552" y="43.349">Enter your text here</text>
</svg>